<svg width="33" height="32" viewBox="0 0 33 32" fill="none" xmlns="http://www.w3.org/2000/svg">
<path d="M17.772 15.4879L21.7147 11.5453L8.98 4.38793C8.136 3.93193 7.34533 3.86793 6.65199 4.3666L17.772 15.4879ZM22.3867 20.1039L26.4853 17.7986C27.2853 17.3506 27.724 16.7159 27.724 16.0119C27.724 15.3093 27.2853 14.6733 26.4867 14.2253L22.776 12.1413L18.5987 16.3173L22.3867 20.1039ZM5.96666 5.33593C5.88133 5.5986 5.83333 5.89193 5.83333 6.21327V25.8199C5.83333 26.3279 5.94533 26.7653 6.14799 27.1133L16.944 16.3159L5.96666 5.33593ZM17.772 17.1426L7.03599 27.8799C7.24133 27.9586 7.46266 27.9999 7.69599 27.9999C8.11199 27.9999 8.54533 27.8773 8.98666 27.6319L21.3267 20.7026L17.772 17.1426Z" fill="white"/>
</svg>
