<svg width="500" height="500" viewBox="0 0 500 500" fill="none" xmlns="http://www.w3.org/2000/svg">
<g clip-path="url(#clip0_6585_12533)">
<path d="M37.712 141.585C34.039 142.163 31.53 145.609 32.108 149.283L59.881 325.745C60.459 329.418 63.905 331.927 67.579 331.349L196.093 311.122C199.766 310.544 202.275 307.097 201.697 303.424L178.499 156.03L135.815 126.144L37.712 141.585Z" fill="#F5F5F5"/>
<path d="M145.786 161.18L178.499 156.031L135.815 126.145L140.752 157.516C141.131 159.918 143.384 161.558 145.786 161.18Z" fill="#D6D6D6"/>
<path d="M135.815 126.145L140.752 157.516C141.13 159.918 143.383 161.558 145.785 161.18L178.498 156.031" stroke="#262626" stroke-width="0.274" stroke-miterlimit="10" stroke-linecap="round" stroke-linejoin="round"/>
<path d="M108.669 245.785C107.962 241.29 107.735 237.615 107.989 234.764C108.243 231.913 109.18 229.189 110.802 226.591C111.729 225.039 112.838 223.655 114.131 222.436C115.422 221.219 116.59 219.961 117.637 218.663C118.681 217.368 119.515 215.966 120.138 214.462C120.76 212.958 120.898 211.103 120.55 208.892C119.963 205.16 118.523 202.71 116.231 201.548C113.94 200.386 111.383 200.027 108.565 200.47C104.525 201.106 101.921 202.669 100.752 205.155C99.581 207.644 99.105 210.822 99.324 214.692L84.58 217.013C83.992 213.28 84.067 209.793 84.807 206.552C85.546 203.313 86.872 200.449 88.784 197.961C90.695 195.475 93.143 193.41 96.126 191.769C99.107 190.129 102.504 189.008 106.315 188.408C114.544 187.113 121.304 187.767 126.595 190.37C131.884 192.975 135.124 198.047 136.311 205.591C136.695 208.031 136.782 210.202 136.576 212.109C136.367 214.016 135.885 215.79 135.13 217.432C134.372 219.074 133.372 220.657 132.129 222.18C130.884 223.704 129.457 225.295 127.844 226.954C126.371 228.514 125.208 229.928 124.352 231.193C123.497 232.46 122.898 233.746 122.558 235.048C122.216 236.352 122.074 237.683 122.132 239.039C122.189 240.397 122.351 241.915 122.614 243.59L108.669 245.785ZM111.685 267.917L109.328 252.944L124.758 250.515L127.115 265.488L111.685 267.917Z" fill="#D6D6D6"/>
<path d="M184.165 254.637C201.177 271.358 220.963 293.922 239.349 323.074C252.14 343.355 261.623 362.653 268.699 379.635C252.393 386.973 236.088 394.31 219.782 401.648L177.862 258.992L184.165 254.637Z" fill="#FEC02D"/>
<path d="M153.265 243.101L184.626 252.903C193.219 266.531 198.182 278.603 201.095 286.998C214.664 326.098 210.312 361.88 209.082 371.992C209.082 371.992 209.061 372.165 205.107 401.648H61.718C61.243 390.962 61.335 376.183 63.858 358.846C66.85 338.288 69.628 319.204 82.064 298.244C87.121 289.721 104.717 262.448 138.456 248.171C144.474 245.624 149.677 244.053 153.265 243.101Z" fill="#FEC02D"/>
<path d="M79.498 302.8C96.954 308.4 119.183 313.896 145.306 316.573C169.641 319.067 191.092 318.472 208.478 316.84C208.976 320.941 209.475 325.042 209.974 329.144C191.406 330.658 169.325 331.115 144.619 328.955C116.942 326.535 92.965 321.441 73.488 315.972C75.491 311.581 77.494 307.191 79.498 302.8Z" fill="#FF7129"/>
<path opacity="0.5" d="M214.055 291.834L221.158 293.419L195.295 401.648H180.652L214.055 291.834Z" fill="#E8A600"/>
<path d="M156.037 380.916L162.12 379.024L176.062 386.231L179.578 377.705L161.884 370.9L154.661 374.285L156.037 380.916Z" fill="#E8A600"/>
<path opacity="0.5" d="M61.494 385.444C75.709 388.999 92.702 392.179 112.01 393.721C128.937 395.073 144.249 394.895 157.478 394.005C157.478 388.572 157.478 383.139 157.478 377.705C125.922 374.18 94.365 370.654 62.809 367.129L61.494 385.444Z" fill="#E8A600"/>
<path d="M165.928 265.636C157.061 264.116 151.105 255.696 152.625 246.829L158.548 212.279L190.658 217.784L184.735 252.334C183.216 261.2 174.795 267.156 165.928 265.636Z" fill="#F7A99C"/>
<path d="M186.394 242.662L167.378 228.261C167.273 230.108 166.974 238.792 173.402 245.953C177.506 250.525 182.358 252.256 184.626 252.903L186.394 242.662Z" fill="#FF7769"/>
<path d="M159.646 201.445C159.636 200.906 158.4 199.877 158.025 199.533C157.392 198.952 156.683 198.452 155.923 198.051C154.446 197.273 152.746 196.854 151.072 196.941C147.744 197.113 144.437 199.304 143.327 202.503C142.682 204.361 142.777 206.417 143.289 208.316C144.058 211.171 145.759 213.756 148.028 215.652C149.908 217.224 152.169 218.323 154.55 218.888C155.027 219.001 159.978 219.751 159.974 219.556C159.865 213.519 159.755 207.482 159.646 201.445Z" fill="#F7A99C"/>
<path d="M155.188 201.008C155.116 203.651 154.998 217.635 165.562 229.383C167.508 231.547 180.446 245.934 195.175 242.603C214.102 238.322 217.258 209.02 217.408 207.43C217.918 202.053 219.419 186.218 207.945 175.616C198.581 166.964 186.703 167.459 185.015 167.556C183.235 167.658 171.863 168.496 163.327 178.005C155.58 186.635 155.306 196.683 155.188 201.008Z" fill="#F7A99C"/>
<path d="M207.396 205.695C207.284 208.006 208.739 209.955 210.647 210.048C212.555 210.141 214.193 208.343 214.305 206.032C214.418 203.721 212.962 201.772 211.054 201.679C209.146 201.586 207.508 203.384 207.396 205.695Z" fill="#262626"/>
<path d="M200.651 208.001L203.035 212.768C203.473 213.644 203.065 214.708 202.152 215.065L198.978 216.308" stroke="#262626" stroke-width="1.7049" stroke-miterlimit="10" stroke-linecap="round" stroke-linejoin="round"/>
<path d="M177.868 214.134C177.742 216.727 179.742 218.932 182.335 219.058C184.928 219.184 187.133 217.184 187.259 214.591C187.385 211.998 185.385 209.793 182.792 209.667C180.199 209.541 177.994 211.541 177.868 214.134Z" fill="#FF7769"/>
<path d="M155.458 212.671C155.562 212.165 156.21 208.727 153.881 205.757C152.057 203.43 149.56 202.861 148.875 202.728" stroke="#262626" stroke-width="1.7049" stroke-miterlimit="10" stroke-linecap="round" stroke-linejoin="round"/>
<path d="M154.03 206.484C153.88 206.433 152.073 205.851 150.533 207.025C149.267 207.99 149.114 209.432 149.092 209.672" stroke="#262626" stroke-width="1.7049" stroke-miterlimit="10" stroke-linecap="round" stroke-linejoin="round"/>
<path d="M213.97 212.917C214.867 212.961 215.684 213.266 216.376 213.737C215.851 216.207 215.083 219.18 213.976 222.284C213.821 222.292 213.671 222.316 213.513 222.308C210.92 222.182 208.92 219.977 209.046 217.384C209.172 214.79 211.377 212.79 213.97 212.917Z" fill="#FF7769"/>
<path d="M188.955 200.728L192.868 205.168L187.264 207.142" stroke="#262626" stroke-width="1.7049" stroke-miterlimit="10" stroke-linecap="round" stroke-linejoin="round"/>
<path d="M187.264 225.775L201.352 227.38C201.314 227.092 200.697 222.931 197.353 221.418C194.075 219.935 189.456 221.577 187.264 225.775Z" fill="white"/>
<path d="M155.338 197.768C156.114 198.07 157.944 198.901 159.4 200.858C160.741 202.662 161.063 204.479 161.158 205.31C175.77 203.923 184.205 199.817 189.285 196.12C189.285 196.12 189.656 195.85 200.368 187.712C202.094 189.573 204.797 192.068 208.623 194.209C212.092 196.15 215.303 197.141 217.655 197.672C225.334 195.885 230.688 190.148 230.866 184.158C231.053 177.849 225.445 173.073 221.465 171.088C214.97 167.849 211.982 171.628 202.459 169.133C194.783 167.122 195.07 164.233 187.872 162.489C185.697 161.962 176.66 159.772 167.579 164.553C159.92 168.586 153.852 176.723 153.248 186.107C152.916 191.242 154.309 195.384 155.338 197.768Z" fill="#262626"/>
<path d="M153.265 243.101C140.379 246.039 116.274 253.46 93.82 273.546C93.82 273.546 71.19 293.79 55.756 331.33C54.389 334.656 52.859 338.166 51.17 345.546C49.861 351.267 49.271 356.542 49.078 361.149C48.934 364.593 51.056 367.726 54.295 368.902C57.141 369.935 60.417 371.087 64.049 372.298C70.776 374.541 85.697 380.653 102.599 382.999C137.845 387.891 157.412 389.114 157.412 389.114L159.974 328.273L113.386 322.376L153.265 243.101Z" fill="#FEC02D"/>
<path d="M190.914 274.387C196.766 294.853 200.392 311.987 202.686 324.481" stroke="#262626" stroke-miterlimit="10" stroke-linecap="round" stroke-linejoin="round"/>
<path opacity="0.5" d="M129.973 270.718L103.833 329.605H119.654L129.973 270.718Z" fill="#E8A600"/>
<path d="M217.756 292.877L203.637 288.876L172.821 397.637L186.94 401.637L217.756 292.877Z" fill="#4450E4"/>
<path d="M158.956 342.598C158.956 342.598 185.447 339.96 188.271 340.831C191.095 341.702 200.761 347.174 202.127 348.735C203.493 350.296 203.981 351.76 203.786 353.224C203.591 354.688 201.639 356.346 201.639 356.346C203.168 358.728 203.221 360.36 202.895 361.463C202.313 363.434 200.001 365.492 199.98 365.518C200.151 366.128 200.343 367.003 200.395 368.067C200.445 369.078 200.545 371.114 199.54 372.973C198.048 375.732 194.977 376.519 194.305 376.675C194.305 376.675 195.492 378.886 193.931 380.74C192.37 382.594 187.686 384.936 182.124 384.155C176.562 383.374 162.12 376.251 162.12 376.251L157.478 377.704L158.956 342.598Z" fill="#F7A99C"/>
<path opacity="0.5" d="M231.317 291.834C266.914 291.834 295.771 262.977 295.771 227.38C295.771 191.783 266.914 162.926 231.317 162.926C195.72 162.926 166.863 191.783 166.863 227.38C166.863 262.977 195.72 291.834 231.317 291.834Z" fill="#CDEBF5"/>
<path d="M231.317 154.55C191.094 154.55 158.487 187.157 158.487 227.38C158.487 267.603 191.094 300.21 231.317 300.21C271.54 300.21 304.147 267.603 304.147 227.38C304.147 187.157 271.54 154.55 231.317 154.55ZM231.317 288.318C197.662 288.318 170.379 261.035 170.379 227.38C170.379 193.725 197.662 166.442 231.317 166.442C264.972 166.442 292.255 193.725 292.255 227.38C292.255 261.035 264.972 288.318 231.317 288.318Z" fill="#4450E4"/>
<path d="M201.639 356.346C201.639 356.346 191.883 354.527 186.954 352.234C182.024 349.941 180.19 348.68 180.19 348.68" stroke="#262626" stroke-width="1.5" stroke-miterlimit="10" stroke-linecap="round" stroke-linejoin="round"/>
<path d="M199.98 365.518C199.98 365.518 188.673 364.387 184.087 361.75C179.501 359.113 177.861 357.393 177.861 357.393" stroke="#262626" stroke-width="1.5" stroke-miterlimit="10" stroke-linecap="round" stroke-linejoin="round"/>
<path d="M196.252 375.985C191.41 375.795 187.772 374.714 185.234 373.673C181.004 371.938 175.718 368.628 175.718 368.628" stroke="#262626" stroke-width="1.5" stroke-miterlimit="10" stroke-linecap="round" stroke-linejoin="round"/>
<path d="M158.956 342.598L157.478 377.705L162.12 376.252L160.632 342.435L158.956 342.598Z" fill="#FF7769"/>
<path d="M128.139 274.387C128.139 274.387 103.838 327.814 104.524 329.19C105.209 330.566 159.975 328.273 159.975 328.273L157.413 389.114C157.413 389.114 114.653 386.411 97.737 382.213C80.821 378.015 61.494 371.437 61.494 371.437" stroke="#262626" stroke-miterlimit="10" stroke-linecap="round" stroke-linejoin="round"/>
<path d="M234.642 184.233C234.265 185.073 234.207 186.056 234.556 186.986C235.258 188.858 237.345 189.806 239.216 189.104C242.617 187.828 246.301 187.29 249.868 187.549C253.855 187.838 256.908 189.036 258.373 189.724C260.111 190.541 263.727 192.241 266.422 195.951C270.176 201.118 269.862 207.164 269.553 209.524C269.293 211.506 270.69 213.323 272.672 213.583C274.655 213.843 276.473 212.444 276.731 210.464C277.255 206.465 277.373 198.708 272.279 191.696C268.49 186.48 263.558 184.162 261.452 183.172C259.107 182.07 255.285 180.683 250.39 180.328C245.788 179.995 241.044 180.685 236.672 182.326C235.731 182.679 235.023 183.383 234.642 184.233Z" fill="white"/>
<path d="M107.884 268.96C99.046 276.818 87.695 288.552 77.334 304.811C66.696 321.506 60.804 337.16 57.438 348.679" stroke="white" stroke-miterlimit="10" stroke-linecap="round" stroke-linejoin="round"/>
<path d="M279.094 401.648H170.865C166.644 401.648 163.222 398.226 163.222 394.005V389.113H279.095V401.648H279.094Z" fill="#2A83C6"/>
<path d="M359.834 401.648H241.757C237.12 401.648 233.82 397.685 234.387 392.795L243.311 315.8C243.878 310.911 248.096 306.947 252.733 306.947H370.81C375.447 306.947 378.747 310.911 378.18 315.8L369.256 392.795C368.689 397.684 364.471 401.648 359.834 401.648Z" fill="#2A83C6"/>
<path d="M371.234 401.648H253.157C248.52 401.648 245.22 397.685 245.787 392.795L254.711 315.8C255.278 310.911 259.496 306.947 264.133 306.947H382.21C386.847 306.947 390.147 310.911 389.58 315.8L380.656 392.795C380.09 397.684 375.871 401.648 371.234 401.648Z" fill="#3897E9"/>
<path d="M389.58 320.227L380.656 393.251C380.656 393.251 381.055 401.647 367.298 401.647C353.54 401.647 290.024 401.647 290.024 401.647C298.342 401.594 327.471 400.395 354.228 378.488C380.932 356.625 387.876 328.381 389.58 320.227Z" fill="#5FBBFF"/>
<path d="M387.121 329.605C384.447 338.261 377.95 355.209 362.38 371.037C347.02 386.652 330.448 393.433 321.869 396.289" stroke="#262626" stroke-miterlimit="10" stroke-linecap="round" stroke-linejoin="round"/>
<path d="M317.708 362.005H313.581L316.211 345.266H320.339L317.708 362.005Z" fill="#FEC02D"/>
<path d="M323.126 362.005H318.999L320.812 350.463H324.94L323.126 362.005Z" fill="#FEC02D"/>
<path d="M202.357 164.835C196.401 168.196 181.359 177.721 171.49 196.934C161.648 216.093 162.636 233.816 163.365 240.62" stroke="#262626" stroke-miterlimit="10" stroke-linecap="round" stroke-linejoin="round"/>
<path d="M209.638 367.712L207.317 351.339" stroke="#262626" stroke-miterlimit="10" stroke-linecap="round" stroke-linejoin="round"/>
<path d="M438.549 351.367H283.845C280.3 351.367 277.426 348.493 277.426 344.948V231.688C277.426 228.143 280.3 225.269 283.845 225.269H438.548C442.093 225.269 444.967 228.143 444.967 231.688V344.948C444.968 348.494 442.094 351.367 438.549 351.367Z" fill="#F5F5F5"/>
<path opacity="0.5" d="M444.968 239.858V231.688C444.968 228.143 442.094 225.269 438.549 225.269H283.845C280.3 225.269 277.426 228.143 277.426 231.688V239.858H444.968Z" fill="#D6D6D6"/>
<path d="M286.14 233.328C286.14 234.426 285.25 235.315 284.153 235.315C283.055 235.315 282.166 234.425 282.166 233.328C282.166 232.231 283.056 231.341 284.153 231.341C285.25 231.34 286.14 232.23 286.14 233.328Z" fill="#F5F5F5"/>
<path d="M292.422 233.328C292.422 234.426 291.532 235.315 290.435 235.315C289.337 235.315 288.448 234.425 288.448 233.328C288.448 232.231 289.338 231.341 290.435 231.341C291.532 231.34 292.422 232.23 292.422 233.328Z" fill="#F5F5F5"/>
<path d="M298.842 233.328C298.842 234.426 297.952 235.315 296.855 235.315C295.757 235.315 294.868 234.425 294.868 233.328C294.868 232.231 295.758 231.341 296.855 231.341C297.952 231.34 298.842 232.23 298.842 233.328Z" fill="#F5F5F5"/>
<path opacity="0.5" d="M379.308 269.82V261.644C379.308 258.962 377.134 256.788 374.452 256.788H326.992C324.31 256.788 322.136 258.962 322.136 261.644V269.82V324.289C322.136 326.971 324.31 329.145 326.992 329.145H402.885C405.567 329.145 407.741 326.971 407.741 324.289V274.676C407.741 271.994 405.567 269.82 402.885 269.82H379.308Z" fill="#D6D6D6"/>
<path d="M374.5 281.24L364.938 290.802L355.377 281.24L349.607 287.01L359.169 296.571L349.607 306.133L355.377 311.903L364.938 302.341L374.5 311.903L380.27 306.133L370.708 296.571L380.27 287.01L374.5 281.24Z" fill="#D6D6D6"/>
<path d="M283.845 225.269H438.548C442.093 225.269 444.967 228.143 444.967 231.688V344.948" stroke="#262626" stroke-width="0.274" stroke-miterlimit="10" stroke-linecap="round" stroke-linejoin="round"/>
<path d="M457.499 422.968H42.686C36.799 422.968 32.026 418.195 32.026 412.308C32.026 406.421 36.799 401.648 42.686 401.648H457.5C463.387 401.648 468.16 406.421 468.16 412.308C468.159 418.195 463.387 422.968 457.499 422.968Z" fill="#FDB6D6"/>
<path d="M430.392 254.439C429.657 248.585 429.511 243.814 429.956 240.13C430.401 236.446 431.725 232.953 433.932 229.652C435.197 227.679 436.69 225.93 438.414 224.402C440.136 222.877 441.701 221.294 443.11 219.654C444.515 218.017 445.652 216.235 446.521 214.311C447.388 212.388 447.642 209.988 447.28 207.109C446.67 202.248 444.903 199.016 441.98 197.417C439.057 195.818 435.759 195.25 432.089 195.711C426.828 196.372 423.39 198.292 421.774 201.467C420.156 204.645 419.411 208.745 419.538 213.769L400.337 216.18C399.726 211.319 399.965 206.802 401.054 202.633C402.142 198.466 403.977 194.807 406.556 191.66C409.134 188.515 412.388 185.938 416.321 183.932C420.25 181.927 424.698 180.612 429.661 179.989C440.378 178.643 449.112 179.765 455.863 183.351C462.612 186.94 466.606 193.644 467.84 203.469C468.239 206.646 468.264 209.464 467.92 211.926C467.573 214.389 466.875 216.669 465.83 218.766C464.782 220.863 463.421 222.874 461.749 224.797C460.074 226.722 458.16 228.725 456.003 230.811C454.031 232.774 452.466 234.558 451.307 236.164C450.148 237.772 449.319 239.414 448.826 241.087C448.33 242.763 448.093 244.482 448.112 246.242C448.13 248.005 448.279 249.978 448.553 252.159L430.392 254.439ZM433.405 283.243L430.956 263.743L451.051 261.22L453.5 280.72L433.405 283.243Z" fill="#FF7129"/>
<path d="M383.434 158.914C403.517 138.831 403.517 106.27 383.434 86.187C363.351 66.1041 330.79 66.1041 310.707 86.187C290.624 106.27 290.624 138.831 310.707 158.914C330.79 178.997 363.351 178.997 383.434 158.914Z" fill="#F5F5F5"/>
<path opacity="0.5" d="M376.579 152.059C392.877 135.762 392.877 109.339 376.579 93.0416C360.282 76.7444 333.859 76.7444 317.562 93.0416C301.265 109.339 301.265 135.762 317.562 152.059C333.859 168.356 360.282 168.356 376.579 152.059Z" fill="#D6D6D6"/>
<path d="M348.449 93.1782H345.698V127.135H348.449V93.1782Z" fill="#D6D6D6"/>
<path d="M347.073 124.617L345.697 127L364.75 138.001L366.126 135.617L347.073 124.617Z" fill="#D6D6D6"/>
</g>
<defs>
<clipPath id="clip0_6585_12533">
<rect width="500" height="500" fill="white"/>
</clipPath>
</defs>
</svg>
