<svg width="55" height="54" viewBox="0 0 55 54" fill="none" xmlns="http://www.w3.org/2000/svg">
<path d="M44.0939 12.9755C45.1408 12.9755 45.9711 13.2831 46.8296 13.8505L43.9969 15.4859C43.0563 16.029 42.7337 17.241 43.275 18.1774C43.818 19.1168 45.0274 19.441 45.9671 18.8984L48.7998 17.263C48.8509 18.1078 48.7726 18.805 48.4284 19.5956C47.5418 21.6326 45.3282 22.7833 43.1489 22.3411C43.0104 22.3131 42.8669 22.3561 42.7669 22.4561L35.7908 29.4321C35.0951 30.1279 33.9628 30.1285 33.2668 29.4326L32.365 28.5309C31.6703 27.8361 31.6689 26.7009 32.3641 26.0059L39.3396 19.0309C39.4395 18.9309 39.4821 18.7874 39.454 18.6489C38.8553 15.7036 41.1262 12.9755 44.0939 12.9755ZM21.7364 14.0474C21.7267 13.5333 21.7542 13.0176 21.8177 12.5073C21.8772 12.0292 22.272 11.6747 22.7536 11.6663C25.2216 11.6233 26.712 8.91475 25.4401 6.80833C25.1919 6.39711 25.282 5.87482 25.6531 5.57013C26.45 4.91559 27.3382 4.37865 28.2885 3.9786C28.7323 3.79182 29.2364 3.95677 29.4841 4.36968C30.7512 6.4818 33.8452 6.42885 35.0368 4.2659C35.2679 3.84634 35.7687 3.66156 36.2169 3.83105C37.1813 4.19555 38.089 4.69874 38.9097 5.3228C39.2904 5.61231 39.3996 6.13396 39.1677 6.55225C37.9731 8.70719 39.5713 11.3559 42.0341 11.3074C42.5262 11.2977 42.9488 11.6632 43.0046 12.1418L43.0158 12.2368C42.3849 12.3735 41.8657 12.5585 41.3032 12.8833C39.2915 14.0451 38.2372 16.2834 38.5867 18.5906L34.6794 22.4979C34.0567 22.0165 33.3809 21.7554 32.5849 21.7697C31.4424 21.7904 30.39 22.4279 29.8392 23.4287C29.6084 23.8483 29.1072 24.0335 28.6592 23.8642C27.6941 23.4996 26.7876 22.9967 25.9663 22.3725C25.5853 22.0827 25.476 21.5612 25.7077 21.1426C26.9015 18.9864 25.307 16.338 22.842 16.3877C22.3619 16.3974 21.9521 16.0565 21.8751 15.5822C21.7926 15.0752 21.7461 14.5612 21.7364 14.0474ZM28.2299 13.9259C28.2732 16.2509 30.1871 18.0974 32.5157 18.0552C34.8408 18.0131 36.6884 16.0935 36.6455 13.7688C36.6026 11.4497 34.6775 9.59745 32.3591 9.63964C30.0337 9.68193 28.1867 11.6042 28.2299 13.9259ZM46.3824 33.449L35.8328 39.5398L35.8202 39.578C35.1988 41.4572 33.2033 42.5261 31.2985 42.0155L23.9324 40.0411C23.3951 39.8971 23.615 39.0819 24.1509 39.2255L31.517 41.1999C32.2628 41.3998 33.0474 41.2926 33.7156 40.9069C35.9686 39.6069 35.4776 36.2564 33.0186 35.5975L18.9027 31.8152C17.5766 31.4599 16.2874 31.6298 15.0986 32.316L11.4155 34.4424L17.5656 45.094L19.7527 43.8313C19.8428 43.7793 19.9481 43.7623 20.0498 43.7835L33.4855 46.5871C33.4926 46.5888 33.5001 46.5902 33.5067 46.5923C34.2113 46.807 35.0672 46.6792 35.7103 46.308L49.282 38.4717C49.9521 38.0848 50.4292 37.4566 50.6293 36.7095C51.3022 34.1982 48.5892 32.1749 46.3824 33.449ZM4.26624 36.9749L11.92 50.2316L17.648 46.9241L9.99414 33.6685L4.26624 36.9749Z" fill="#0277FA"/>
</svg>
