<svg width="55" height="54" viewBox="0 0 55 54" fill="none" xmlns="http://www.w3.org/2000/svg">
<path d="M15.0016 14.8186H19.1104L18.7328 15.1816C17.7564 16.1204 16.4684 16.6424 15.1131 16.642C12.2326 16.6412 9.89023 14.2976 9.89023 11.4171C9.89023 8.53631 12.234 6.19321 15.1146 6.19321C17.9952 6.19321 20.3391 8.53631 20.3391 11.4171C20.3391 12.4445 20.0655 13.3105 19.5448 14.1856H15.0016C14.5842 14.1855 14.5857 14.8186 15.0016 14.8186ZM30.7201 10.2515H43.0426V21.4672L41.6097 20.0341C41.1187 19.5431 40.3731 20.2893 40.864 20.7793L43.1969 23.1127C43.2962 23.2119 43.4314 23.2678 43.5714 23.2678C43.572 23.2663 43.5723 23.2678 43.5729 23.2678C43.8056 23.2653 43.9047 23.1157 43.9403 23.1157L43.9405 23.1147L46.2758 20.7793C46.7668 20.2889 46.0211 19.5433 45.53 20.0341L44.0973 21.4672V9.7241C44.0973 9.43321 43.8612 9.19718 43.57 9.19718H30.7201C30.0259 9.19728 30.0262 10.2515 30.7201 10.2515ZM24.0836 27.9174C24.6 27.3347 24.455 26.429 23.7792 26.041C23.3072 25.7699 23.1116 25.2053 23.3132 24.7C23.5061 24.217 24.0511 23.1656 24.4836 22.8633L24.6458 22.75L24.5431 22.5809C22.5384 19.2801 18.9768 17.2745 15.1131 17.2749C9.24202 17.2756 4.38064 21.905 4.09757 27.7674L4.08691 27.9884H24.0206L24.0836 27.9174ZM6.35903 15.0295H7.94549C8.23679 15.0295 8.47294 14.7929 8.47294 14.502V8.64019C9.59766 5.95169 12.1931 4.21884 15.1146 4.21884C18.0337 4.21884 20.6284 5.94969 21.7541 8.63471V13.9746H20.6162C20.1973 14.6779 19.9879 15.0294 19.9879 15.0294H23.8681C24.9669 15.0294 25.8609 14.135 25.8609 13.0357V9.99874C25.8609 8.89944 24.9669 8.00506 23.8681 8.00506H22.631C21.2928 5.05289 18.3805 3.16394 15.1147 3.16394C11.8484 3.16394 8.93689 5.05289 7.59871 8.00506H6.35903C5.26025 8.00506 4.36609 8.89944 4.36609 9.99874V13.0358C4.36609 14.1351 5.26025 15.0295 6.35903 15.0295ZM34.5894 28.7166C34.7859 28.8294 34.8675 29.0635 34.7834 29.274C34.5741 29.7979 34.2897 30.2888 33.94 30.7316C33.7996 30.9093 33.5567 30.9556 33.3607 30.8421C32.1226 30.1251 30.5677 31.0229 30.5698 32.4534C30.5701 32.6807 30.4085 32.8681 30.1833 32.9C29.6292 32.9786 29.0545 32.9813 28.5005 32.9009C28.2755 32.8682 28.1143 32.6804 28.1147 32.4532C28.1169 31.0097 26.5491 30.1326 25.3237 30.842C25.1278 30.9554 24.8849 30.9091 24.7447 30.7314C24.395 30.2886 24.1105 29.7978 23.9012 29.2739C23.8172 29.0634 23.8986 28.8293 24.0951 28.7165C25.336 28.0035 25.336 26.205 24.0951 25.492C23.8982 25.3789 23.8171 25.1455 23.9012 24.9346C24.1104 24.4106 24.3951 23.9198 24.7447 23.4771C24.8849 23.2994 25.1278 23.2531 25.3238 23.3666C26.5598 24.0823 28.1169 23.1883 28.1147 21.7543C28.1144 21.527 28.2756 21.3402 28.5006 21.3077C29.0552 21.2275 29.6293 21.2274 30.1839 21.3077C30.4089 21.3403 30.5701 21.527 30.5698 21.7543C30.5677 23.1874 32.1237 24.0826 33.3607 23.3665C33.5567 23.2531 33.7994 23.2994 33.9397 23.477C34.2895 23.9198 34.5745 24.4105 34.7834 24.9346C34.8674 25.1454 34.7863 25.3788 34.5895 25.4919C33.348 26.2055 33.3492 28.004 34.5894 28.7166ZM31.7594 27.1044C31.7594 25.7717 30.6749 24.6871 29.3421 24.6871C28.0094 24.6871 26.9249 25.7717 26.9249 27.1044C26.9249 28.4373 28.0092 29.5217 29.3421 29.5217C30.6752 29.5217 31.7594 28.4373 31.7594 27.1044ZM48.5586 27.2891H39.7143C38.4158 27.2891 37.3599 28.3448 37.3599 29.6432V46.8788H50.9129V29.6432C50.9129 28.3447 49.8571 27.2891 48.5586 27.2891ZM37.3599 47.5119H50.9129V48.4819C50.9129 49.7799 49.8567 50.836 48.5586 50.836H39.7143C38.4164 50.836 37.3599 49.7798 37.3599 48.4819V47.5119ZM42.8954 49.3859H45.3772C45.5518 49.3859 45.6937 49.2441 45.6937 49.0694C45.6937 48.8948 45.552 48.7529 45.3772 48.7529H42.8954C42.4791 48.753 42.4791 49.3859 42.8954 49.3859ZM27.9643 43.9573H15.642V32.7421L17.0747 34.1752C17.2806 34.3807 17.6147 34.3807 17.8204 34.1752C18.0264 33.9683 18.0264 33.6349 17.8204 33.4296L15.4862 31.0947H15.4855C15.4852 31.093 15.3491 30.9424 15.1172 30.9416C14.8809 30.9407 14.7495 31.0912 14.7462 31.0912L14.7439 31.0932L12.4085 33.4296C12.2026 33.635 12.2026 33.9683 12.4085 34.1752C12.6146 34.3807 12.9484 34.3807 13.1543 34.1752L14.5872 32.7421V44.4847C14.5872 44.7756 14.8231 45.0122 15.1144 45.0122H27.9641C28.6583 45.012 28.6583 43.9573 27.9643 43.9573Z" fill="#0277FA"/>
</svg>
