<svg width="55" height="54" viewBox="0 0 55 54" fill="none" xmlns="http://www.w3.org/2000/svg">
<path fill-rule="evenodd" clip-rule="evenodd" d="M5.75004 19.199C5.95349 20.3086 6.5767 21.2726 7.50472 21.9126C8.1388 22.3506 8.86421 22.6015 9.61441 22.6524C9.99136 22.6592 10.2839 22.6607 10.6648 22.5907C12.9542 22.1709 14.4762 19.9659 14.0565 17.6765C13.6336 15.3698 11.4255 13.8637 9.14181 14.2843C6.84965 14.7065 5.32816 16.9047 5.75004 19.199ZM29.2682 38.888C29.1798 38.4154 28.881 37.7848 27.9625 37.4608L25.4187 36.5644L24.0843 40.3532L26.6281 41.2485C28.4125 41.8768 29.5133 40.1971 29.2682 38.888ZM40.271 35.0098L38.4651 37.3556C38.2077 37.6908 37.8557 37.9324 37.4473 38.0528C37.4389 38.0548 37.4305 38.0578 37.4221 38.0612L30.048 40.6579C30.6968 39.2522 30.3297 37.6149 28.971 36.7798L35.505 34.4785C35.6101 34.4415 35.7011 34.3718 35.7642 34.2789L39.8592 28.3L40.271 35.0098ZM45.4114 23.7068C42.6523 23.8926 41.5036 25.4526 40.8265 26.8393L41.95 45.1538H46.1822L45.2943 30.7386C45.2517 30.0437 46.3041 29.9817 46.3466 30.6739L47.239 45.1538H50.6697L49.5995 27.7854C49.4622 25.5735 47.6261 23.7868 45.4132 23.7067C45.4124 23.7068 45.4114 23.7068 45.4114 23.7068ZM40.9446 17.6766C40.5238 19.966 42.046 22.171 44.3359 22.5908C46.6083 23.0079 48.8261 21.5188 49.2516 19.1991C49.7288 16.5967 47.7177 14.2138 45.0885 14.2138C43.0675 14.2137 41.3136 15.6643 40.9446 17.6766ZM20.6981 15.6488C20.6981 19.3996 23.7491 22.452 27.5009 22.452C31.2511 22.452 34.3025 19.3996 34.3025 15.6488C34.3025 11.8986 31.2511 8.84619 27.5009 8.84619C23.749 8.84609 20.6981 11.8986 20.6981 15.6488ZM23.555 15.2769C23.7609 15.07 24.0953 15.07 24.3006 15.2769L26.3096 17.2849L30.7004 12.8941C30.9063 12.6886 31.2396 12.6886 31.446 12.8941C31.6519 13.101 31.6519 13.4343 31.446 13.6397L26.6819 18.4039C26.4772 18.6096 26.1422 18.6094 25.9367 18.4039L23.5548 16.0226C23.349 15.8157 23.348 15.4824 23.555 15.2769ZM9.58573 23.7068C9.68698 23.7123 9.78917 23.7162 9.89137 23.7162C11.1968 23.7162 12.4123 24.3146 12.9923 25.1612L19.2363 34.2789C19.2995 34.3717 19.3899 34.4413 19.4956 34.4785L24.4241 36.2143L23.0897 40.0016L17.578 38.0612C17.5696 38.0578 17.5613 38.0548 17.5528 38.0528C17.1445 37.9324 16.7934 37.6908 16.5351 37.3556L11.3744 30.6487C11.1971 30.418 10.8647 30.3746 10.6351 30.5528C10.4041 30.7301 10.361 31.061 10.5383 31.2921L13.6525 35.34L13.0515 45.1537H4.33032L5.40199 27.7853C5.5391 25.5515 7.3712 23.7867 9.58573 23.7068Z" fill="#0277FA"/>
</svg>
