<svg width="55" height="54" viewBox="0 0 55 54" fill="none" xmlns="http://www.w3.org/2000/svg">
<path d="M18.9759 15.9174C18.8533 16.2659 18.9488 16.6217 19.2291 16.8624L20.4514 17.9118C20.7559 18.1732 20.9473 18.5041 21.0213 18.8986L21.3187 20.4819C21.3868 20.8447 21.6477 21.1049 22.0103 21.1732L23.5935 21.4709C23.9875 21.545 24.3192 21.7361 24.5804 22.0403L25.6298 23.2631C25.8704 23.5435 26.2263 23.6382 26.5747 23.516L28.0943 22.9826C28.4729 22.8497 28.8555 22.8484 29.2342 22.9815L30.7542 23.5159C31.1025 23.6383 31.4582 23.5433 31.6987 23.263L32.7481 22.0402C33.0092 21.736 33.3409 21.545 33.735 21.4708L35.3183 21.1731C35.6807 21.1049 35.9413 20.8443 36.0094 20.4818L36.3071 18.8976C36.3811 18.5039 36.5726 18.1727 36.8766 17.9118L38.0994 16.8624C38.3795 16.622 38.4745 16.2655 38.3522 15.9175L37.8183 14.398C37.6852 14.0192 37.6853 13.6363 37.8183 13.2575L38.3522 11.7375C38.4745 11.3892 38.3796 11.0336 38.0994 10.793L36.8766 9.74363C36.5726 9.48271 36.3812 9.15153 36.3071 8.75782L36.0094 7.17357C35.9413 6.81108 35.6809 6.55004 35.3182 6.48191L33.7349 6.18459C33.3406 6.11055 33.0093 5.91892 32.748 5.61464L31.6986 4.39236C31.458 4.11213 31.1026 4.01647 30.7541 4.13913L29.2341 4.67396C28.8557 4.80706 28.4727 4.80717 28.0943 4.67396L26.5747 4.13913C26.2289 4.01742 25.8713 4.11097 25.6297 4.39236L24.5803 5.61464C24.319 5.91902 23.9877 6.11055 23.5934 6.18459L22.0102 6.48191C21.6473 6.55004 21.3866 6.81076 21.3185 7.17357L21.0211 8.75782C20.9472 9.15185 20.7554 9.48249 20.4512 9.74363L19.2289 10.793C18.9488 11.0336 18.8532 11.3892 18.9757 11.7375L19.51 13.2575C19.6431 13.6363 19.6432 14.019 19.51 14.3979L18.9759 15.9174ZM28.6642 6.66922C32.6118 6.66922 35.8225 9.88106 35.8225 13.8284C35.8225 17.7752 32.611 20.9862 28.6642 20.9862C24.7176 20.9862 21.5056 17.7752 21.5056 13.8284C21.5054 9.88095 24.7168 6.66922 28.6642 6.66922ZM28.6642 20.1343C32.1417 20.1343 34.9701 17.3058 34.9701 13.8284C34.9701 10.3504 32.1426 7.52109 28.6642 7.52109C25.1862 7.52109 22.358 10.3506 22.358 13.8284C22.3578 17.3056 25.187 20.1343 28.6642 20.1343ZM25.9822 13.5262L27.6696 15.2136L31.3462 11.5374C31.743 11.1408 32.3454 11.7438 31.9482 12.141L27.9713 16.118C27.8056 16.2836 27.5349 16.2841 27.3688 16.118L25.3795 14.1287C24.9831 13.7321 25.5857 13.1297 25.9822 13.5262ZM34.3793 22.2158L36.1477 28.8162L33.8378 27.9813C33.6707 27.921 33.4824 27.9717 33.3678 28.1074L31.7851 29.984L30.2469 24.2439L30.4711 24.3193C31.1446 24.5565 31.8806 24.3592 32.3454 23.8175L33.3943 22.5952C33.6489 22.2988 33.9686 22.294 34.3793 22.2158ZM50.1512 35.8618C47.8659 38.4967 44.0132 40.8513 40.8763 42.3064C39.1071 43.127 37.2457 43.8258 35.3536 44.3035C33.7071 44.7193 31.9204 44.9971 30.2192 44.8885C30.2113 44.8883 30.2032 44.8875 30.1946 44.8875L16.7957 44.7408C16.2994 44.7381 15.327 44.959 14.8302 45.0977C13.6264 45.4338 12.5336 45.8864 11.4074 46.4199V36.2848L11.5161 36.3935C12.5958 35.4095 13.9051 34.6703 15.2814 34.1908C16.3143 33.831 17.3572 33.601 18.4576 33.6255L30.9602 33.7563C35.2856 33.8016 34.1633 37.5254 33.053 37.7996V37.8109C30.1797 37.9528 27.0787 37.9127 24.1651 37.9466C23.6025 37.9532 23.6161 38.8073 24.175 38.799C25.2048 38.7861 26.2347 38.7802 27.2646 38.7738C30.4569 38.754 34.1374 38.7838 37.2855 38.2003C41.1966 37.4754 44.651 35.7506 48.0839 33.7982C48.5395 33.5391 49.0828 33.3329 49.6146 33.3475C50.0458 33.3595 50.4833 33.5265 50.6899 33.926C51.0231 34.5703 50.572 35.3766 50.1512 35.8618ZM10.555 34.7214V48.1697C10.555 49.1315 9.77363 49.9134 8.81176 49.9134H5.93763C4.97607 49.9134 4.19434 49.1312 4.19434 48.1697V34.7214C4.19434 33.76 4.97628 32.9781 5.93763 32.9781H8.81176C9.77342 32.9781 10.555 33.7597 10.555 34.7214ZM26.2819 24.4193C26.6004 24.4193 26.795 24.3403 27.0814 24.2438L25.5433 29.9839L23.9605 28.1074C23.8457 27.9713 23.6576 27.9208 23.4901 27.9813L21.1812 28.8162L22.9491 22.2159C23.3603 22.2941 23.6793 22.2986 23.934 22.5954L24.9829 23.8177C25.3095 24.1981 25.7796 24.4193 26.2819 24.4193Z" fill="#0277FA"/>
</svg>
